<svg xmlns="http://www.w3.org/2000/svg" viewBox="0 0 19 25"><path d="M18.2 9.2c0-.1-.1-.1-.1-.2l-3.9-5V1.6c0-.3-.2-.6-.6-.6H5c-.4 0-.6.3-.6.6V4L.9 9c0 .1-.1.1-.1.2V24h17.5l-.1-14.8zM2 12.9h8v7.2H2v-7.2zm8-.6H2v-1.9h8v1.9zm3.7-7l3 3.9h-5.4l2.4-3.9zm-8.2-.7c0-.1 0-.1 0 0h1.1c.2 0 .3-.1.3-.3 0-.2-.1-.3-.3-.3h-1V2.2H13v1.7H8.8c-.2 0-.3.1-.3.3 0 .2.1.3.3.3h4L10 9c0 .1-.1.1-.1.2H2.2l3.3-4.6zM2 20.8h8v2H2v-2zm9.2 2V10.4H17v2h-4c-.2 0-.3.1-.3.3s.1.3.3.3h4v7.3h-4c-.2 0-.3.1-.3.3s.1.3.3.3h4V23h-5.8z"/></svg>
