<svg xmlns="http://www.w3.org/2000/svg" viewBox="0 0 17 25"><path d="M14.9 7.5l-.4-1.1C12.9 2.9 10.8 1 8.5 1H8h-.1c-2.5.4-4.8 3.2-6.1 7.6l-.3.9c-.5 2-.8 4.2-.8 6.2 0 2.5.9 4.6 2.5 6.1C4.7 23.3 6.6 24 8.6 24c3.7 0 7.6-2.4 7.6-7.8V16v-.3c.1-2.7-.4-5.7-1.3-8.2zm0 8.5v.2c0 3.1-2 6.4-6.3 6.4-1.7 0-3.3-.6-4.5-1.7-1.3-1.2-2-3-2-5.2 0-1.9.3-4 .7-5.9l.3-.8c1.2-3.8 3-6.3 5-6.6h.5c1.7 0 3.4 1.7 4.7 4.6l.3 1c.8 2.4 1.3 5.2 1.3 7.8v.2zm-2.2-6.9c.1.3-.1.5-.3.6h-.1c-.2 0-.4-.1-.5-.4-.3-.9-.6-1.6-1.1-2.3-.1-.2-.1-.5.1-.7.2-.2.5-.1.7.1.5.9.9 1.7 1.2 2.7zm-2.6-4.2c.2.2.2.5.1.7-.1.1-.2.2-.4.2-.1 0-.2 0-.3-.1-.7-.7-1.3-.9-1.3-.9-.3-.1-.4-.4-.3-.6.1-.3.3-.4.6-.3 0 0 .8.3 1.6 1z"/></svg>
