<svg xmlns="http://www.w3.org/2000/svg" viewBox="0 0 72 72"><path d="M66.8 13.5c-6.5-6.9-16.5-7-16.9-7H.9c-.4 0-.8.3-.9.7-.2.4 0 .8.3 1.1.9.7 1.6 2.1 2.4 4 2.3 4.9 5.8 12.3 20 15.3h.1c3.5.4 6.8.4 9.9.3l-5.3 7.9c-.1.1-.2.3-.2.5 0 .3.1.6.4.8.1.1.3.2.5.2.4 0 .7-.2.9-.5l6-9c1.2 0 2.4-.1 3.5-.1L33.1 36c-.1.1-.2.3-.2.5 0 .3.2.6.5.8.1.1.3.2.5.2.3 0 .6-.2.8-.5l6.2-9.3c1.1 0 2.3.1 3.4.2-1.7 2.2-4.8 6.4-5.2 7-.1.2-.2.4-.2.6 0 .3.1.6.4.8.2.1.4.2.6.2.3 0 .6-.1.8-.4 2-2.8 5.2-7.2 5.9-7.9.7.1 1.3.2 2 .4 4.6 1.7 7.5 4.4 8 7.4.6 3.2-1.6 6.9-6.4 10.9-.3.4-2 1.2-3.2 1.8-1.5.8-2.5 1.3-3.2 1.8-1.1-3.8-4.4-10.2-20.8-10.9-.4-.1-.7.1-.9.4-2 3 3.7 10.3 6.4 13.4-2.1 1.8-7.4 6.9-5.5 11.5.1.4.5.6.9.6 15.9 0 18.5-5 19.9-8.9.1 0 .3-.1.4-.1C60.7 50.7 72 40 71.9 30.6c.5-7.2-1.2-12.9-5.1-17.1zm-43.2 28c16.3.9 17.8 7.5 18.4 10.6 0 .1.1.3.1.4H30.3c-3.6-4.1-6.8-9.1-6.7-11zm18.5 13.7c-1.2 3.6-2.8 8.2-17.5 8.3-.6-3.3 3.5-7.4 5.6-9h12.1c0 .2-.1.5-.2.7zm-19-29.7C9.9 22.7 6.8 16.1 4.6 11.3c-.5-1-1-2-1.5-2.8h14.2c-.8.6-1.4 1.6-1.4 2.8 0 1.9 1.6 3.5 3.5 3.5s3.5-1.6 3.5-3.5c0-1.1-.6-2.1-1.4-2.8h11.8c-6.2 6.6-4 14.4-2.8 17.3-2.3 0-4.8 0-7.4-.3zm13.2-17h13.6c.1 0 7.2.1 12.9 4.2C51.2 14 46.3 24.1 45.5 25.9c-1.9-.2-3.7-.3-5.6-.3-1.6 0-3.3 0-4.9.1-.8.1-1.5.1-2.3.1-.8-1.7-4.5-10.5 3.6-17.3zm13 18h-.1c-.5-.1-1.1-.2-1.6-.3 1.2-2.6 6.3-11.5 17.3-11.7l.4.4c3.5 3.7 5.1 8.9 4.6 15.6 0 1.1-.2 2.3-.5 3.4-3.7-2.3-7.3-1.8-10.8 1.5-.8-5-6.2-7.7-9.3-8.9zm-4.4 27L45 52c.6-.4 1.9-1.1 2.9-1.6 2-1 3.2-1.6 3.7-2.1.3-.2.6-.5.8-.7.3.5 1 1.4 1.9 2.1-2.9 1.6-6 3.1-9.4 4.4v-.6zm11.3-4.9c-1.3-.8-2.1-2-2.3-2.4 2.7-2.8 4.3-5.4 4.7-8l.4-.4c2.2-2.5 5.4-4.9 9.7-1.9-2 4.4-6.4 8.9-12.5 12.7z"/></svg>
