<svg width="137" height="31" xmlns="http://www.w3.org/2000/svg"><g fill="none" fill-rule="evenodd"><path d="M2.5 16.014V27.5h24.118V16.014L14.558 3.59 2.5 16.014z" stroke="#4191FF" stroke-width="5"/><path d="M63.178 29.647h-4.83l-.36-8.13c-.15-2.91-.21-5.91-.06-8.49l-3.21 14.43h-4.65l-3.42-14.43c.21 3.06.21 5.64.09 8.55l-.36 8.07h-4.8l1.56-20.79h6.21l3.12 14.1 2.91-14.1h6.24l1.56 20.79zm15.72-4.62c0 1.23.33 1.68 1.08 1.95l-.99 3.09c-1.89-.15-3.12-.72-3.84-2.31-1.14 1.77-2.91 2.4-4.8 2.4-3.18 0-5.19-2.07-5.19-4.98 0-3.48 2.64-5.37 7.47-5.37h1.62v-.69c0-1.89-.75-2.46-2.7-2.46-1.02 0-2.58.3-4.17.84l-1.08-3.12c2.01-.75 4.2-1.17 6-1.17 4.62 0 6.6 1.95 6.6 5.64v6.18zm-7.17 1.74c1.11 0 1.95-.57 2.52-1.53v-2.82h-1.17c-2.16 0-3.21.75-3.21 2.34 0 1.26.69 2.01 1.86 2.01zm13.29-21.45c1.65 0 2.82 1.17 2.82 2.7 0 1.53-1.17 2.7-2.82 2.7s-2.79-1.17-2.79-2.7c0-1.53 1.14-2.7 2.79-2.7zm2.4 24.33h-4.74v-15.93h4.74v15.93zm9.33-16.44c2.31 0 4.38.75 5.85 1.95l-1.74 2.7c-1.23-.81-2.55-1.26-3.78-1.26-1.44 0-2.07.48-2.07 1.2 0 .84.42 1.2 3.27 2.04 3.15.9 4.92 2.22 4.92 5.07 0 3.3-3.12 5.25-7.08 5.25-2.76 0-5.1-.96-6.66-2.37l2.34-2.61c1.17.96 2.64 1.59 4.17 1.59 1.47 0 2.34-.54 2.34-1.47 0-1.11-.48-1.44-3.36-2.25-3.15-.9-4.71-2.52-4.71-4.98 0-2.73 2.49-4.86 6.51-4.86zm15.78 0c4.86 0 7.8 3.12 7.8 8.49 0 5.1-2.94 8.46-7.8 8.46-4.83 0-7.8-3.12-7.8-8.49 0-5.1 2.94-8.46 7.8-8.46zm0 3.48c-1.92 0-2.88 1.53-2.88 4.98 0 3.54.96 5.01 2.88 5.01s2.88-1.53 2.88-4.98c0-3.54-.96-5.01-2.88-5.01zm19.95-3.48c2.76 0 4.41 1.77 4.41 4.8v11.64h-4.74v-10.83c0-1.68-.57-2.13-1.5-2.13-1.05 0-1.92.75-2.76 2.07v10.89h-4.74v-15.93h4.14l.33 1.89c1.35-1.59 2.88-2.4 4.86-2.4z" fill="#3D3D3D" fill-rule="nonzero"/></g></svg>
