<svg width="24" height="24" xmlns="http://www.w3.org/2000/svg"><path d="M1.67 3.292l5.519 5.4c-.74.819.032 1.928.9 2.976 1.234 1.5 2.65 2.82 3.87 3.796 1.784 1.421 2.74 2.073 3.442 1.417l.077-.079 5.38 5.275c-.84.967-5.832 2.907-13.888-5.188C-.677 9.213.918 4.329 1.67 3.292zm16.754 11.38l.087.074 4.257 4.11c.29.305.308.77.057 1.122l-.076.093-1.488 1.587-5.386-5.29 1.449-1.585a.834.834 0 011.1-.11zM3.427 1.27c.309-.34.751-.365 1.083-.039L8.68 5.46c.404.423.822.896.553 1.213v.005L7.671 8.26 2.029 2.855z" fill="#333" fill-rule="evenodd"/></svg>
