<?xml version="1.0" encoding="utf-8"?>
<svg version="1.1" id="Capa_1" xmlns="http://www.w3.org/2000/svg" xmlns:xlink="http://www.w3.org/1999/xlink" x="0px" y="0px"
	 viewBox="0 0 19 25" style="enable-background:new 0 0 19 25;" xml:space="preserve">
<path d="M18.2,9.2c0-0.1-0.1-0.1-0.1-0.2l-3.9-5c0,0,0-0.1,0-0.1V1.6C14.2,1.3,14,1,13.6,1H5C4.6,1,4.4,1.3,4.4,1.6v2.3
	c0,0,0,0.1,0,0.1L0.9,9c0,0.1-0.1,0.1-0.1,0.2h0V24h17.5L18.2,9.2L18.2,9.2z M2,12.9h8v7.2c0,0,0,0,0,0H2V12.9z M10,12.3H2v-1.9h8
	V12.3z M13.7,5.3l3,3.9h-5.4L13.7,5.3z M5.5,4.6C5.5,4.5,5.5,4.5,5.5,4.6l1.1,0c0.2,0,0.3-0.1,0.3-0.3c0-0.2-0.1-0.3-0.3-0.3h-1
	c0,0,0,0,0,0V2.2H13v1.7c0,0,0,0,0,0H8.8C8.6,3.9,8.5,4,8.5,4.2c0,0.2,0.1,0.3,0.3,0.3h4L10,9c0,0.1-0.1,0.1-0.1,0.2H2.2L5.5,4.6z
	 M2,20.8h8c0,0,0,0,0,0v2H2V20.8z M11.2,22.8V10.4H17v2c0,0-0.1,0-0.2,0H13c-0.2,0-0.3,0.1-0.3,0.3s0.1,0.3,0.3,0.3h3.8
	c0.1,0,0.1,0,0.2,0v7.3c0,0-0.1,0-0.2,0H13c-0.2,0-0.3,0.1-0.3,0.3s0.1,0.3,0.3,0.3h3.8c0.1,0,0.1,0,0.2,0v2.1H11.2z"/>
</svg>
