<svg xmlns="http://www.w3.org/2000/svg" viewBox="0 0 16.6 25"><path d="M14.3 16.6c-3 0-5.5 2.5-5.5 5.5 0 .5.2 1 .6 1.3.3.3.8.6 1.3.6 3 0 5.5-2.5 5.5-5.5 0-.5-.2-1-.6-1.3-.3-.3-.7-.5-1.3-.6zm-3.6 6c-.1 0-.3-.1-.4-.2-.1-.1-.2-.2-.2-.4 0-2.3 1.9-4.1 4.1-4.1.1 0 .3 0 .4.2.1.1.2.2.2.4 0 2.3-1.8 4.1-4.1 4.1zm-1.9-8.3c0 .5.2 1 .6 1.3.3.3.8.6 1.3.6 3 0 5.5-2.5 5.5-5.5 0-.5-.2-1-.5-1.3-.3-.3-.8-.5-1.3-.6-3.1 0-5.6 2.5-5.6 5.5zm5.5-4.1c.1 0 .3 0 .4.2.1.1.2.2.2.4 0 2.3-1.9 4.1-4.1 4.1-.1 0-.3-.1-.4-.2-.1-.1-.2-.2-.2-.4 0-2.3 1.8-4.1 4.1-4.1zm-12 6.4c-.5 0-1 .2-1.3.6-.4.4-.6.8-.6 1.3 0 3 2.5 5.5 5.5 5.5.5 0 1-.2 1.3-.6.4-.4.6-.8.6-1.3 0-3-2.5-5.4-5.5-5.5zm4 5.9c-.1.1-.2.2-.4.2-2.3 0-4.1-1.9-4.1-4.1 0-.1.1-.3.2-.4 0-.1.1-.2.3-.2 2.3 0 4.1 1.9 4.1 4.1 0 .2 0 .3-.1.4zm-4-13.7c-.5 0-1 .2-1.3.6-.4.4-.6.8-.6 1.3 0 3 2.5 5.5 5.5 5.5.5 0 1-.2 1.3-.6.4-.4.6-.8.6-1.3 0-3-2.5-5.5-5.5-5.5zm4 5.9c-.1.1-.2.2-.4.2-2.3 0-4.1-1.9-4.1-4.1 0-.1.1-.3.2-.4.1-.1.2-.1.4-.2 2.3 0 4.1 1.9 4.1 4.1-.1.1-.1.3-.2.4zm4.9-9.1c0-1.5-.6-3-1.8-4.1-.7-.7-1.8-.7-2.6 0C5.7 2.6 5 4 5 5.6c0 1.5.6 3 1.8 4.1.3.3.8.5 1.3.5s.9-.2 1.3-.5c1.1-1.1 1.8-2.6 1.8-4.1zM7.7 8.7c-.8-.9-1.3-2-1.3-3.1s.5-2.3 1.4-3.1c0-.1.2-.1.3-.1.1 0 .3 0 .4.1.9.8 1.4 1.9 1.4 3.1s-.6 2.2-1.4 3.1c-.2.2-.6.2-.8 0z"/></svg>
