<?xml version="1.0" encoding="utf-8"?>
<svg version="1.1" id="Capa_1" xmlns="http://www.w3.org/2000/svg" xmlns:xlink="http://www.w3.org/1999/xlink" x="0px" y="0px"
	 viewBox="0 0 26.2 25" style="enable-background:new 0 0 26.2 25;" xml:space="preserve">
<path d="M17.3,18.8c0-0.3,0.3-0.6,0.6-0.6c0.3,0,0.6,0.3,0.6,0.6c0,0.3-0.3,0.6-0.6,0.6C17.6,19.4,17.3,19.1,17.3,18.8z M7.2,18.6
	c-0.4,0-0.8,0.3-0.8,0.8c0,0.4,0.3,0.8,0.8,0.8c0.4,0,0.8-0.3,0.8-0.8C8,19,7.6,18.6,7.2,18.6z M4.8,18.2c-0.3,0-0.6,0.3-0.6,0.6
	c0,0.3,0.3,0.6,0.6,0.6c0.3,0,0.6-0.3,0.6-0.6C5.4,18.4,5.1,18.2,4.8,18.2z M21.2,5.4c0-0.3-0.3-0.6-0.6-0.6c-0.3,0-0.6,0.3-0.6,0.6
	c0,0.3,0.3,0.6,0.6,0.6C20.9,6,21.2,5.7,21.2,5.4z M21.2,7c-0.4,0-0.8,0.3-0.8,0.8c0,0.4,0.3,0.8,0.8,0.8c0.4,0,0.8-0.3,0.8-0.8
	C22,7.4,21.6,7,21.2,7z M25.8,16.5c0,1.8-0.5,3.3-1.6,4.5c-1.2,1.3-2.8,1.9-4.9,1.9c-0.1,0-0.3,0-0.4,0c-0.7,0.3-1.6,0.5-2.6,0.5
	c-0.9,0-1.8-0.2-2.5-0.5c-0.7-0.2-1.3-0.4-1.8-0.3c-0.8,0.1-1.4,0.3-2.1,0.6l-0.3-0.6L9.3,22c0.8-0.3,1.5-0.7,2.5-0.7
	c0.8-0.1,1.6,0.2,2.3,0.4c0.7,0.2,1.4,0.4,2.1,0.4c2,0,3.2-0.9,3.8-1.7c0.6-0.8,1-1.9,1-2.9c0-1-0.4-2.1-1-2.9
	c-0.6-0.8-1.7-1.7-3.8-1.7c-0.7,0-1.4,0.2-2.1,0.4c-0.7,0.2-1.5,0.5-2.3,0.4c-1-0.1-1.8-0.4-2.5-0.7c-0.8-0.3-1.6-0.7-2.5-0.7
	c-1.5,0-2.7,0.4-3.6,1.2c-1,0.9-1.5,2.3-1.5,4c0,1.7,0.5,3.1,1.5,4c0.9,0.8,2.1,1.2,3.6,1.2c0.9,0,1.7-0.3,2.5-0.7l0.3,0.6l0.3,0.6
	C9,23.6,8,24,6.8,24c-1.8,0-3.3-0.5-4.5-1.6c-1.3-1.2-1.9-2.8-1.9-4.9c0-2.1,0.7-3.8,1.9-4.9C3.5,11.6,5,11,6.8,11
	c1.2,0,2.2,0.4,3,0.8c0.7,0.3,1.3,0.6,2.1,0.6c0.6,0,1.1-0.1,1.8-0.3c0.1,0,0.2-0.1,0.4-0.1c0.1-0.2,0.1-0.4,0.1-0.7
	c0-0.6-0.1-1.1-0.3-1.8C13.7,8.8,13.4,8,13.4,7c0-2.6,1.2-4,2.2-4.8C16.6,1.5,18,1,19.3,1C20.6,1,22,1.5,23,2.3
	C24,3,25.2,4.5,25.2,7c0,0.9-0.2,1.8-0.5,2.5c-0.2,0.7-0.4,1.3-0.3,1.8c0.1,0.8,0.3,1.4,0.6,2.1C25.4,14.3,25.8,15.3,25.8,16.5z
	 M24.5,16.5c0-0.9-0.3-1.7-0.7-2.5v0c-0.3-0.8-0.7-1.5-0.7-2.5c-0.1-0.8,0.2-1.6,0.4-2.3c0.2-0.7,0.4-1.4,0.4-2.1
	c0-2-0.9-3.2-1.7-3.8c-0.8-0.6-1.9-1-2.9-1c-1,0-2.1,0.4-2.9,1C15.6,3.9,14.7,5,14.7,7c0,0.7,0.2,1.4,0.4,2.1
	c0.2,0.7,0.5,1.5,0.4,2.3c0,0.1,0,0.2,0,0.2c0.2,0,0.5-0.1,0.8-0.1c2.6,0,4,1.2,4.8,2.2c0.8,1,1.3,2.4,1.3,3.7
	c0,1.3-0.5,2.7-1.3,3.7c-0.1,0.1-0.1,0.1-0.2,0.2c1-0.2,1.8-0.7,2.4-1.3C24.1,19.2,24.5,18,24.5,16.5z"/>
</svg>
