<svg xmlns="http://www.w3.org/2000/svg" viewBox="0 0 15.2 20.5"><path class="path1" fill="#63605D" d="M6.7.8c-.5 0-.9.4-.9.9v2c0 .2-.1.3-.3.3h-.2c-.2-.1-.3-.2-.3-.4v-2c0-.5-.4-.9-.9-.9s-.9.4-.9.9v2c0 .2-.1.3-.3.3h-.2c-.2 0-.3-.1-.3-.3v-2c0-.5-.4-.9-.9-.9-.5.1-.9.5-.9.9v4.1c0 1.2.9 2.3 2.1 2.6v10c0 .8.6 1.4 1.4 1.4s1.4-.6 1.4-1.4v-10C6.7 8 7.6 6.9 7.6 5.7V1.6c0-.4-.4-.8-.9-.8zm4.9.1c-.2-.1-.3-.1-.5-.1-.8 0-1.4.6-1.4 1.4v16.3c0 .8.7 1.4 1.4 1.4s1.4-.6 1.4-1.4v-5.9c.8 0 1.4-.2 1.7-.5.3-.3.4-.6.4-1-.5-8.4-2.2-10-3-10.2z"/></svg>
