<?xml version="1.0" encoding="utf-8"?>
<svg version="1.1" id="Capa_1" xmlns="http://www.w3.org/2000/svg" xmlns:xlink="http://www.w3.org/1999/xlink" x="0px" y="0px"
	 viewBox="0 0 15.2 20.5" style="enable-background:new 0 0 15.2 20.5;" xml:space="preserve">
<path class="path1" fill="#63605D" d="M6.7,0.8c-0.5,0-0.9,0.4-0.9,0.9v2c0,0.2-0.1,0.3-0.3,0.3H5.3C5.1,3.9,5,3.8,5,3.6v-2c0-0.5-0.4-0.9-0.9-0.9
	c-0.5,0-0.9,0.4-0.9,0.9v2c0,0.2-0.1,0.3-0.3,0.3H2.7c-0.2,0-0.3-0.1-0.3-0.3v-2c0-0.5-0.4-0.9-0.9-0.9C1,0.8,0.6,1.2,0.6,1.6v4.1
	c0,1.2,0.9,2.3,2.1,2.6v10c0,0.8,0.6,1.4,1.4,1.4s1.4-0.6,1.4-1.4v-10C6.7,8,7.6,6.9,7.6,5.7V1.6C7.6,1.2,7.2,0.8,6.7,0.8z
	 M11.6,0.9c-0.2-0.1-0.3-0.1-0.5-0.1c-0.8,0-1.4,0.6-1.4,1.4v16.3c0,0.8,0.7,1.4,1.4,1.4s1.4-0.6,1.4-1.4v-5.9
	c0.8,0,1.4-0.2,1.7-0.5c0.3-0.3,0.4-0.6,0.4-1C14.1,2.7,12.4,1.1,11.6,0.9z"/>
</svg>
