<svg xmlns="http://www.w3.org/2000/svg" viewBox="0 0 9.5 23.8"><path d="M8.8 9.4c0-.4-.1-.8-.1-1.2 0-.3-.1-.7-.1-1 0-.3-.2-.6-.4-.9-.3-.5-.8-.8-1.3-1-.1 0-.2-.1-.3-.1 0 .4-.2.7-.4 1-.3.2-.6.4-.9.4-.5.1-.9.1-1.3-.2 0 0-.1-.1-.2-.1 0 .1-.1.1-.1.2-.2.2-.3.5-.4.8-.1.3-.1.5 0 .8.1.9.3 1.7.4 2.6.1 1.1.2 2.2.2 3.3 0 .8 0 1.5-.1 2.3 0 .2 0 .4-.1.5-.1.5-.1 1-.2 1.4-.2 1-.5 1.9-.8 2.8-.2.4-.3.9-.4 1.3-.1.2-.1.4-.1.6 0 .2.1.3.3.3h.1l.6-.3c.7-.3 1.2-.8 1.7-1.3.6-.6 1.2-1.3 1.7-2 .3-.5.6-1.1.9-1.7.2-.6.5-1.1.6-1.7.4-1.3.6-2.6.7-3.9.1-1 .1-1.9 0-2.9zm-3.4 4.9c0 .1-.1.9-.1 1.1 0 .2-.3 1-.3 1.2-.1.2-.1.3-.2.5 0 .1-.1.1-.1.2v-.1c0-.2.1-.4.1-.7 0-.3.1-.6.1-1 0-.2 0-.4.1-.7v-1.7c0-.9-.2-1.9-.4-2.8-.1-.3-.1-.6-.2-1v-.1l.1.1c.1.2.2.5.3.7.4 1.1.6 2.2.6 3.4v.9z" fill-rule="evenodd" clip-rule="evenodd" fill="#f15b25"/><path d="M6 5.1c-.2-.2-.4-.3-.6-.5-.3-.3-.6-.7-.9-1.1-.3-.4-.7-.8-1-1.2-.5-.4-.9-.7-1.3-1-.3-.2-.6-.4-.9-.5C1.1.7 1 .7.9.6c-.1.3-.2.5-.3.7.1 0 .2.1.3.1.5.2.9.5 1.4.8.5.4 1 .9 1.4 1.4.2.4.4.8.5 1.3.1.3.1.5 0 .8 0 .1-.1.2-.1.3.1 0 .2.1.4.1.3.1.6.1.9 0 .4-.1.7-.5.7-1H6z" fill-rule="evenodd" clip-rule="evenodd" fill="#72ab74"/></svg>
